<svg xmlns="http://www.w3.org/2000/svg" style="display: none;">
<!-- icon Table -->
  <symbol id="icon-table" viewBox="0 0 24 24" fill="currentColor">
    <path d="M3 6.25C3 4.45507 4.45507 3 6.25 3H17.75C19.5449 3 21 4.45507 21 6.25V17.75C21 19.5449 19.5449 21 17.75 21H6.25C4.45507 21 3 19.5449 3 17.75V6.25ZM6.25 4.5C5.2835 4.5 4.5 5.2835 4.5 6.25V17.75C4.5 18.7165 5.2835 19.5 6.25 19.5H8.5V4.5H6.25ZM14 19.5V15.5H10V19.5H14ZM15.5 19.5H17.75C18.7165 19.5 19.5 18.7165 19.5 17.75V15.5H15.5V19.5ZM15.5 14H19.5V10H15.5L15.5 14ZM14 10H10V14H14L14 10ZM14 8.5V4.5H10V8.5H14ZM15.5 8.5H19.5V6.25C19.5 5.2835 18.7165 4.5 17.75 4.5H15.5V8.5Z"/>
  </symbol>
  <!-- Icon list -->
  <symbol id="icon-list" viewBox="0 0 24 24" >
    <path d="M20.7507 17.5004C20.0607 17.5004 19.5014 18.0598 19.5014 18.7497C19.5014 19.4397 20.0607 19.999 20.7507 19.999C21.4407 19.999 22 19.4397 22 18.7497C22 18.0598 21.4407 17.5004 20.7507 17.5004ZM17.25 18.0004H2.75C2.33579 18.0004 2 18.3362 2 18.7504C2 19.1301 2.28215 19.4439 2.64823 19.4936L2.75 19.5004H17.25C17.6642 19.5004 18 19.1647 18 18.7504C18 18.3707 17.7178 18.057 17.3518 18.0073L17.25 18.0004ZM20.7507 11.0004C20.0607 11.0004 19.5014 11.5598 19.5014 12.2497C19.5014 12.9397 20.0607 13.499 20.7507 13.499C21.4407 13.499 22 12.9397 22 12.2497C22 11.5598 21.4407 11.0004 20.7507 11.0004ZM17.25 11.5004H2.75C2.33579 11.5004 2 11.8362 2 12.2504C2 12.6301 2.28215 12.9439 2.64823 12.9936L2.75 13.0004H17.25C17.6642 13.0004 18 12.6647 18 12.2504C18 11.8707 17.7178 11.557 17.3518 11.5073L17.25 11.5004ZM20.7507 4.50044C20.0607 4.50044 19.5014 5.05977 19.5014 5.74973C19.5014 6.43969 20.0607 6.99902 20.7507 6.99902C21.4407 6.99902 22 6.43969 22 5.74973C22 5.05977 21.4407 4.50044 20.7507 4.50044ZM17.25 5.00044H2.75C2.33579 5.00044 2 5.33623 2 5.75044C2 6.13014 2.28215 6.44393 2.64823 6.4936L2.75 6.50044H17.25C17.6642 6.50044 18 6.16466 18 5.75044C18 5.37075 17.7178 5.05695 17.3518 5.00729L17.25 5.00044Z" fill="#212121"/>
</symbol>
<!-- Icon stats -->
    <symbol id="icon-stats" viewBox="0 0 32 32" fill="none" stroke="currentColor" stroke-linecap="round" stroke-linejoin="round" stroke-width="2">
    <line x1="3" y1="29" x2="29" y2="29" />
    <line x1="3" y1="3" x2="3" y2="29" />
    <line x1="16" y1="7" x2="16" y2="25" />
    <line x1="22" y1="11" x2="22" y2="25" />
    <line x1="10" y1="16" x2="10" y2="25" />
    </symbol>
<!-- Icon Duplicate -->
    <symbol id="icon-duplicate" viewBox="0 0 32 32" fill="currentColor">
        <path d="M27.2,8.22H23.78V5.42A3.42,3.42,0,0,0,20.36,2H5.42A3.42,3.42,0,0,0,2,5.42V20.36a3.43,3.43,0,0,0,3.42,3.42h2.8V27.2A2.81,2.81,0,0,0,11,30H27.2A2.81,2.81,0,0,0,30,27.2V11A2.81,2.81,0,0,0,27.2,8.22ZM5.42,21.91a1.55,1.55,0,0,1-1.55-1.55V5.42A1.54,1.54,0,0,1,5.42,3.87H20.36a1.55,1.55,0,0,1,1.55,1.55v2.8H11A2.81,2.81,0,0,0,8.22,11V21.91ZM28.13,27.2a.93.93,0,0,1-.93.93H11a.93.93,0,0,1-.93-.93V11a.93.93,0,0,1,.93-.93H27.2a.93.93,0,0,1,.93.93Z"/>
    </symbol>
<!-- Icon leaders -->
    <symbol id="icon-leaders" viewBox="0 0 32 32" fill="none" stroke="currentColor" stroke-linecap="round" stroke-linejoin="round" stroke-width="2">
        <circle cx="16" cy="13" r="5"/>
        <path d="M23,28A7,7,0,0,0,9,28Z"/>
        <path d="M24,14a5,5,0,1,0-4-8"/>
        <path d="M25,24h6a7,7,0,0,0-7-7"/>
        <path d="M12,6a5,5,0,1,0-4,8"/>
        <path d="M8,17a7,7,0,0,0-7,7H7"/>
    </symbol>
<!-- Icon help -->
    <symbol id="icon-help" viewBox="0 0 24 24" fill="none" stroke="currentColor" stroke-linecap="round" stroke-linejoin="round" stroke-width="2">
        <circle cx="12" cy="12" r="10"/>
        <path d="M9.09 9a3 3 0 0 1 5.83 1c0 2-3 3-3 3"/>
        <line x1="12" x2="12.01" y1="17" y2="17"/>
    </symbol>
<!-- Icon logout -->
    <symbol id="icon-logout" viewBox="0 0 24 24" fill="none" stroke="currentColor" stroke-linecap="round" stroke-linejoin="round" stroke-width="2">
        <path d="M0 0h24v24H0z" fill="none" stroke="none"/>
        <path d="M14 8v-2a2 2 0 0 0 -2 -2h-7a2 2 0 0 0 -2 2v12a2 2 0 0 0 2 2h7a2 2 0 0 0 2 -2v-2"/>
        <path d="M7 12h14l-3 -3m0 6l3 -3"/>
    </symbol>
<!-- Icon right -->
    <symbol id="icon-chevrons-right" viewBox="0 0 24 24" fill="none" stroke="currentColor" stroke-linecap="round" stroke-linejoin="round" stroke-width="2">
        <polyline points="13 17 18 12 13 7"/>
        <polyline points="6 17 11 12 6 7"/>
    </symbol>
<!-- Icon left -->
    <symbol id="icon-chevrons-left" viewBox="0 0 24 24" fill="none" stroke="currentColor" stroke-linecap="round" stroke-linejoin="round" stroke-width="2">
        <polyline points="11 17 6 12 11 7"/>
        <polyline points="18 17 13 12 18 7"/>
    </symbol>

<!-- Icon Menu -->
    <symbol id="icon-menu" viewBox="0 0 512 512" fill="currentColor">
        <path d="M441.13,166.52h-372a15,15,0,1,1,0-30h372a15,15,0,0,1,0,30Z"/>
        <path d="M441.13,279.72h-372a15,15,0,1,1,0-30h372a15,15,0,0,1,0,30Z"/>
        <path d="M441.13,392.92h-372a15,15,0,1,1,0-30h372a15,15,0,0,1,0,30Z"/>
    </symbol>

<!-- Icon close -->
    <symbol id="icon-close" viewBox="0 0 24 24" fill="currentColor">
        <path d="M6.00015 4.58569L12.0002 10.5857L18.0002 4.58569L19.4144 5.99991L13.4144 11.9999L19.4144 17.9999L18.0002 19.4141L12.0002 13.4141L6.00015 19.4141L4.58594 17.9999L10.5859 11.9999L4.58594 5.99991L6.00015 4.58569Z"/>
    </symbol>

<!-- Icon Tool -->
    <symbol id="icon-tool" viewBox="0 0 576 512" fill="currentColor">
    <path d="M413.5 237.5c-28.2 4.8-58.2-3.6-80-25.4l-38.1-38.1C280.4 159 272 138.8 272 117.6l0-12.1L192.3 62c-5.3-2.9-8.6-8.6-8.3-14.7s3.9-11.5 9.5-14l47.2-21C259.1 4.2 279 0 299.2 0l18.1 0c36.7 0 72 14 98.7 39.1l44.6 42c24.2 22.8 33.2 55.7 26.6 86L503 183l8-8c9.4-9.4 24.6-9.4 33.9 0l24 24c9.4 9.4 9.4 24.6 0 33.9l-88 88c-9.4 9.4-24.6 9.4-33.9 0l-24-24c-9.4-9.4-9.4-24.6 0-33.9l8-8-17.5-17.5zM27.4 377.1L260.9 182.6c3.5 4.9 7.5 9.6 11.8 14l38.1 38.1c6 6 12.4 11.2 19.2 15.7L134.9 484.6c-14.5 17.4-36 27.4-58.6 27.4C34.1 512 0 477.8 0 435.7c0-22.6 10.1-44.1 27.4-58.6z"/>
  </symbol>

<!-- Icon trash -->
  <symbol id="icon-trash" viewBox="0 0 448 512" fill="currentColor">
  <path d="M135.2 17.7L128 32 32 32C14.3 32 0 46.3 0 64S14.3 96 32 96l384 0c17.7 0 32-14.3 32-32s-14.3-32-32-32l-96 0-7.2-14.3C307.4 6.8 296.3 0 284.2 0L163.8 0c-12.1 0-23.2 6.8-28.6 17.7zM416 128L32 128 53.2 467c1.6 25.3 22.6 45 47.9 45l245.8 0c25.3 0 46.3-19.7 47.9-45L416 128z"/>
</symbol>

<!-- Icon pen -->
<symbol id="icon-pen" viewBox="0 0 512 512" fill="currentColor">
  <path d="M362.7 19.3L314.3 67.7 444.3 197.7l48.4-48.4c25-25 25-65.5 0-90.5L453.3 19.3c-25-25-65.5-25-90.5 0zm-71 71L58.6 323.5c-10.4 10.4-18 23.3-22.2 37.4L1 481.2C-1.5 489.7 .8 498.8 7 505s15.3 8.5 23.7 6.1l120.3-35.4c14.1-4.2 27-11.8 37.4-22.2L421.7 220.3 291.7 90.3z"/>
</symbol>

</svg>