<svg xmlns="http://www.w3.org/2000/svg" style="display: none;">
<!-- icon Table -->
  <symbol id="icon-table" viewBox="0 0 24 24" fill="currentColor">
    <path d="M3 6.25C3 4.45507 4.45507 3 6.25 3H17.75C19.5449 3 21 4.45507 21 6.25V17.75C21 19.5449 19.5449 21 17.75 21H6.25C4.45507 21 3 19.5449 3 17.75V6.25ZM6.25 4.5C5.2835 4.5 4.5 5.2835 4.5 6.25V17.75C4.5 18.7165 5.2835 19.5 6.25 19.5H8.5V4.5H6.25ZM14 19.5V15.5H10V19.5H14ZM15.5 19.5H17.75C18.7165 19.5 19.5 18.7165 19.5 17.75V15.5H15.5V19.5ZM15.5 14H19.5V10H15.5L15.5 14ZM14 10H10V14H14L14 10ZM14 8.5V4.5H10V8.5H14ZM15.5 8.5H19.5V6.25C19.5 5.2835 18.7165 4.5 17.75 4.5H15.5V8.5Z"/>
  </symbol>
<!-- Icon stats -->
    <symbol id="icon-stats" viewBox="0 0 32 32" fill="none" stroke="currentColor" stroke-linecap="round" stroke-linejoin="round" stroke-width="2">
    <line x1="3" y1="29" x2="29" y2="29" />
    <line x1="3" y1="3" x2="3" y2="29" />
    <line x1="16" y1="7" x2="16" y2="25" />
    <line x1="22" y1="11" x2="22" y2="25" />
    <line x1="10" y1="16" x2="10" y2="25" />
    </symbol>
<!-- Icon Duplicate -->
    <symbol id="icon-duplicate" viewBox="0 0 32 32" fill="currentColor">
        <path d="M27.2,8.22H23.78V5.42A3.42,3.42,0,0,0,20.36,2H5.42A3.42,3.42,0,0,0,2,5.42V20.36a3.43,3.43,0,0,0,3.42,3.42h2.8V27.2A2.81,2.81,0,0,0,11,30H27.2A2.81,2.81,0,0,0,30,27.2V11A2.81,2.81,0,0,0,27.2,8.22ZM5.42,21.91a1.55,1.55,0,0,1-1.55-1.55V5.42A1.54,1.54,0,0,1,5.42,3.87H20.36a1.55,1.55,0,0,1,1.55,1.55v2.8H11A2.81,2.81,0,0,0,8.22,11V21.91ZM28.13,27.2a.93.93,0,0,1-.93.93H11a.93.93,0,0,1-.93-.93V11a.93.93,0,0,1,.93-.93H27.2a.93.93,0,0,1,.93.93Z"/>
    </symbol>
<!-- Icon leaders -->
    <symbol id="icon-leaders" viewBox="0 0 32 32" fill="none" stroke="currentColor" stroke-linecap="round" stroke-linejoin="round" stroke-width="2">
        <circle cx="16" cy="13" r="5"/>
        <path d="M23,28A7,7,0,0,0,9,28Z"/>
        <path d="M24,14a5,5,0,1,0-4-8"/>
        <path d="M25,24h6a7,7,0,0,0-7-7"/>
        <path d="M12,6a5,5,0,1,0-4,8"/>
        <path d="M8,17a7,7,0,0,0-7,7H7"/>
    </symbol>
<!-- Icon help -->
    <symbol id="icon-help" viewBox="0 0 24 24" fill="none" stroke="currentColor" stroke-linecap="round" stroke-linejoin="round" stroke-width="2">
        <circle cx="12" cy="12" r="10"/>
        <path d="M9.09 9a3 3 0 0 1 5.83 1c0 2-3 3-3 3"/>
        <line x1="12" x2="12.01" y1="17" y2="17"/>
    </symbol>
<!-- Icon logout -->
    <symbol id="icon-logout" viewBox="0 0 24 24" fill="none" stroke="currentColor" stroke-linecap="round" stroke-linejoin="round" stroke-width="2">
        <path d="M0 0h24v24H0z" fill="none" stroke="none"/>
        <path d="M14 8v-2a2 2 0 0 0 -2 -2h-7a2 2 0 0 0 -2 2v12a2 2 0 0 0 2 2h7a2 2 0 0 0 2 -2v-2"/>
        <path d="M7 12h14l-3 -3m0 6l3 -3"/>
    </symbol>
<!-- Icon right -->
    <symbol id="icon-chevrons-right" viewBox="0 0 24 24" fill="none" stroke="currentColor" stroke-linecap="round" stroke-linejoin="round" stroke-width="2">
        <polyline points="13 17 18 12 13 7"/>
        <polyline points="6 17 11 12 6 7"/>
    </symbol>
<!-- Icon left -->
    <symbol id="icon-chevrons-left" viewBox="0 0 24 24" fill="none" stroke="currentColor" stroke-linecap="round" stroke-linejoin="round" stroke-width="2">
        <polyline points="11 17 6 12 11 7"/>
        <polyline points="18 17 13 12 18 7"/>
    </symbol>

</svg>